<?xml version="1.0" standalone="no"?>
<!DOCTYPE svg PUBLIC "-//W3C//DTD SVG 20010904//EN"
 "http://www.w3.org/TR/2001/REC-SVG-20010904/DTD/svg10.dtd">
<svg version="1.0" xmlns="http://www.w3.org/2000/svg"
 width="549.000000pt" height="151.000000pt" viewBox="0 0 549.000000 151.000000"
 preserveAspectRatio="xMidYMid meet">

<g transform="translate(0.000000,151.000000) scale(0.100000,-0.100000)"
fill="#000000" stroke="none">
<path d="M913 1045 c23 -69 45 -125 48 -125 4 0 10 14 14 30 6 27 11 30 44 30
34 0 51 -11 157 -105 66 -57 119 -108 119 -112 0 -7 -35 -39 -211 -195 -19
-17 -25 -17 -90 -4 -48 10 -72 11 -81 4 -22 -18 -14 -26 35 -33 47 -6 93 -25
63 -25 -7 0 -42 5 -78 12 -55 10 -66 9 -79 -4 -15 -14 -12 -17 35 -27 29 -6
59 -11 66 -11 8 0 15 -4 15 -10 0 -12 -1 -12 -80 5 -45 9 -68 10 -77 3 -23
-19 -14 -26 52 -39 35 -7 69 -15 75 -19 5 -3 13 -40 16 -82 6 -72 8 -76 26
-65 18 11 19 20 14 92 -5 56 -4 75 3 65 6 -8 11 -39 11 -67 0 -54 8 -64 30
-38 9 11 11 35 6 85 -4 45 -2 70 4 70 6 0 10 -27 10 -61 0 -52 2 -60 18 -57
14 3 17 15 17 82 l0 80 115 102 c63 57 119 103 123 104 5 0 62 -47 126 -105
l118 -105 -5 -70 c-3 -49 -1 -74 8 -85 19 -23 30 -1 30 63 0 28 5 52 10 52 6
0 8 -25 4 -70 -5 -50 -3 -74 6 -85 22 -27 30 -16 30 45 0 33 4 60 10 60 6 0 7
-28 3 -74 -5 -68 -4 -75 16 -85 20 -11 21 -9 21 22 0 19 3 55 6 80 l7 46 79
18 c76 18 78 20 60 36 -20 18 -26 18 -140 -8 -14 -4 -21 -2 -18 4 4 5 26 13
50 16 51 8 71 19 62 34 -9 14 -45 14 -101 0 -24 -6 -50 -9 -57 -6 -7 2 15 10
50 17 64 13 72 19 48 39 -10 8 -30 8 -82 -3 l-68 -14 -65 56 c-35 31 -88 77
-117 102 -29 25 -53 48 -53 51 -1 3 53 54 119 112 109 98 122 107 159 107 36
0 40 -3 46 -31 4 -18 11 -27 16 -22 5 5 27 62 48 126 28 82 36 117 27 117 -24
0 -221 -42 -236 -50 -11 -7 -9 -11 13 -21 22 -10 27 -19 27 -49 0 -35 -7 -43
-125 -146 -69 -60 -128 -108 -132 -106 -5 1 -63 50 -130 109 -115 100 -123
109 -123 143 0 30 5 39 26 49 15 6 24 14 21 18 -6 5 -219 52 -244 53 -7 0 5
-48 30 -125z m107 66 l25 -7 -24 -8 c-16 -6 -28 -3 -39 8 -18 18 -8 20 38 7z
m668 -7 c-11 -11 -23 -14 -39 -8 -24 8 -23 8 6 15 47 11 50 10 33 -7z m-718
-60 c0 -8 -4 -14 -10 -14 -5 0 -10 4 -10 9 0 5 -3 18 -7 28 -6 16 -5 16 10 4
9 -7 17 -20 17 -27z m753 8 c-6 -24 -23 -30 -23 -9 0 13 21 39 26 34 2 -2 1
-13 -3 -25z"/>
<path d="M2180 735 l0 -175 83 0 c108 0 162 25 195 90 45 90 15 196 -68 238
-35 17 -61 22 -127 22 l-83 0 0 -175z m180 127 c42 -20 70 -72 70 -127 0 -89
-59 -145 -152 -145 l-48 0 0 145 0 145 48 0 c26 0 63 -8 82 -18z"/>
<path d="M3590 895 c0 -12 13 -15 55 -15 l55 0 0 -160 0 -160 25 0 25 0 0 160
0 160 55 0 c42 0 55 3 55 15 0 13 -22 15 -135 15 -113 0 -135 -2 -135 -15z"/>
<path d="M2530 685 l0 -125 25 0 c25 0 25 1 25 85 0 97 16 125 70 125 23 0 30
4 30 20 0 27 -48 27 -84 -1 l-26 -20 0 20 c0 14 -6 21 -20 21 -19 0 -20 -7
-20 -125z"/>
<path d="M2773 800 c-31 -13 -63 -68 -63 -108 0 -103 92 -163 180 -117 51 26
37 51 -16 29 -55 -23 -103 -1 -117 53 -5 22 -2 22 82 25 l86 3 -3 35 c-5 68
-79 108 -149 80z m92 -45 c38 -37 32 -45 -40 -45 -64 0 -76 8 -57 36 9 14 44
33 60 34 7 0 24 -11 37 -25z"/>
<path d="M3008 794 c-50 -27 -28 -55 22 -29 38 20 68 11 81 -22 14 -38 11 -43
-21 -43 -35 0 -101 -25 -112 -43 -14 -22 -8 -64 10 -80 24 -22 71 -22 101 -1
22 16 24 16 33 0 5 -9 16 -16 23 -16 12 0 15 18 15 90 0 95 -14 142 -45 154
-28 10 -79 6 -107 -10z m112 -150 c0 -32 -58 -61 -90 -44 -46 25 -10 68 58 69
28 1 32 -2 32 -25z"/>
<path d="M3220 685 l0 -125 25 0 c25 0 25 0 25 95 0 88 2 96 24 110 52 34 76
-6 76 -126 0 -72 2 -79 20 -79 19 0 20 7 20 95 0 90 1 95 25 111 23 15 27 15
50 0 24 -16 25 -21 25 -111 0 -88 1 -95 20 -95 19 0 20 7 20 100 0 94 -2 103
-25 125 -30 30 -73 32 -107 5 -25 -19 -26 -19 -43 0 -22 24 -57 26 -90 4 -23
-15 -25 -15 -25 0 0 9 -8 16 -20 16 -19 0 -20 -7 -20 -125z"/>
<path d="M3884 791 c-76 -46 -65 -187 17 -221 53 -23 155 6 135 38 -4 7 -18 6
-41 -4 -42 -17 -80 -10 -100 19 -33 47 -22 56 67 59 94 3 102 11 73 71 -27 57
-93 73 -151 38z m101 -36 c38 -37 32 -45 -40 -45 -73 0 -84 14 -39 49 34 27
50 26 79 -4z"/>
<path d="M4133 794 c-20 -10 -30 -21 -26 -30 6 -17 3 -17 48 2 33 14 39 14 61
-1 14 -9 24 -25 24 -39 0 -20 -6 -24 -49 -30 -88 -12 -128 -69 -81 -116 23
-23 64 -25 100 -5 32 18 40 18 40 0 0 -8 7 -15 15 -15 12 0 15 18 15 100 0 94
-2 103 -25 125 -28 29 -74 32 -122 9z m107 -150 c0 -33 -58 -61 -91 -44 -41
23 1 70 64 70 22 0 27 -4 27 -26z"/>
<path d="M4340 685 l0 -125 25 0 c25 0 25 0 25 94 0 87 2 96 22 110 29 20 34
20 58 -4 17 -17 20 -33 20 -110 0 -83 1 -90 20 -90 19 0 20 7 20 90 0 77 3 93
20 110 24 24 29 24 58 4 20 -14 22 -23 22 -110 l0 -94 26 0 26 0 -4 100 c-3
88 -6 102 -28 125 -29 31 -77 33 -112 6 -24 -20 -25 -20 -41 0 -20 23 -56 25
-83 4 -25 -19 -34 -19 -34 0 0 8 -9 15 -20 15 -19 0 -20 -7 -20 -125z"/>
</g>
</svg>
