<?xml version="1.0" standalone="no"?>
<!DOCTYPE svg PUBLIC "-//W3C//DTD SVG 20010904//EN"
 "http://www.w3.org/TR/2001/REC-SVG-20010904/DTD/svg10.dtd">
<svg version="1.0" xmlns="http://www.w3.org/2000/svg"
 width="549.000000pt" height="151.000000pt" viewBox="0 0 549.000000 151.000000"
 preserveAspectRatio="xMidYMid meet">

<g transform="translate(0.000000,151.000000) scale(0.100000,-0.100000)"
fill="#000000" stroke="none">
<path d="M2256 1148 c3 -12 24 -69 45 -127 l38 -106 13 33 c11 28 17 32 48 32
30 0 51 -14 158 -108 l123 -107 -53 -50 c-30 -27 -83 -76 -120 -108 l-65 -57
-69 14 c-48 10 -72 11 -81 4 -22 -18 -15 -24 48 -37 34 -7 58 -15 55 -18 -3
-4 -38 0 -76 7 -63 12 -73 12 -87 -2 -14 -14 -10 -17 36 -27 29 -6 59 -11 66
-11 8 0 15 -4 15 -10 0 -12 -1 -12 -80 5 -59 12 -67 12 -83 -3 -17 -15 -15
-17 40 -29 32 -7 68 -15 79 -18 19 -4 23 -14 29 -85 7 -79 8 -81 26 -64 17 15
19 27 14 93 -3 50 -2 68 4 51 5 -14 9 -44 10 -67 1 -45 10 -53 31 -28 8 10 10
36 5 87 -4 52 -3 69 4 58 6 -8 11 -39 11 -68 0 -50 1 -52 21 -40 19 12 21 19
16 88 l-6 75 115 100 c64 55 119 101 124 103 4 2 61 -44 127 -102 l118 -104
-5 -72 c-4 -58 -2 -74 11 -86 15 -13 17 -12 23 17 3 17 6 47 6 65 0 19 4 34 9
34 8 0 6 -82 -3 -131 -2 -9 5 -21 14 -27 23 -14 30 2 30 69 0 28 4 48 9 45 4
-3 6 -37 3 -76 -3 -48 -1 -74 8 -85 19 -23 30 -8 30 39 0 97 4 103 86 122 76
18 84 23 60 43 -13 11 -30 9 -134 -14 -14 -4 -21 -2 -18 4 4 5 26 13 50 16 23
4 49 11 57 16 24 15 -11 31 -56 25 -105 -14 -115 -14 -52 1 70 17 77 22 52 43
-11 9 -29 9 -82 -4 -63 -14 -69 -14 -88 3 -134 117 -211 186 -213 192 -2 4 51
55 117 113 104 93 124 106 155 106 31 0 38 -4 50 -32 10 -24 15 -29 19 -18 4
8 24 66 46 128 46 130 54 122 -94 91 -126 -27 -139 -33 -102 -50 22 -10 27
-19 27 -48 0 -33 -9 -44 -125 -146 -69 -60 -128 -110 -131 -110 -3 0 -61 49
-129 109 -89 77 -125 116 -126 132 -1 13 -2 29 -3 34 -1 6 12 19 27 29 l29 18
-27 7 c-43 11 -216 46 -227 46 -5 0 -6 -10 -2 -22z m139 -38 c19 -7 19 -8 2
-15 -12 -5 -24 -2 -35 9 -13 13 -14 16 -2 15 8 0 24 -4 35 -9z m673 -6 c-11
-11 -23 -14 -39 -8 -24 8 -23 8 6 15 47 11 50 10 33 -7z m-718 -61 c0 -24 -15
-14 -27 18 -12 31 -12 31 7 14 11 -10 20 -24 20 -32z m747 5 c-11 -31 -12 -31
-15 -9 -3 19 10 40 25 41 1 0 -3 -15 -10 -32z"/>
</g>
</svg>
